<?xml version="1.0" encoding="utf-8"?>
<!-- Generator: Adobe Illustrator 25.4.2, SVG Export Plug-In . SVG Version: 6.00 Build 0)  -->
<svg version="1.1" id="Ebene_1" xmlns="http://www.w3.org/2000/svg" xmlns:xlink="http://www.w3.org/1999/xlink" x="0px" y="0px"
	 viewBox="0 0 600 600" style="enable-background:new 0 0 600 600;" xml:space="preserve">
<style type="text/css">
	.st0{fill:none;stroke:#004D37;stroke-width:16;stroke-miterlimit:10;}
	.st1{fill:#004D37;stroke:#004D37;stroke-miterlimit:10;}
	.st2{fill:none;stroke:#004D37;stroke-width:15;stroke-miterlimit:10;}
</style>
<ellipse transform="matrix(0.7198 -0.6941 0.6941 0.7198 -42.6584 100.993)" class="st0" cx="103.78" cy="103.34" rx="118.13" ry="48.14"/>
<path class="st0" d="M382.39,352.23c-9.9,1.1-19.05,6.09-25.09,14.07c-0.61,0.81-1.15,1.59-1.59,2.33l0,0
	c-0.57,0.96-0.97,2.01-1.17,3.1l0,0c-0.97,5.28-1.37,10.65-1.18,16.01v0c0.21,6.11,1.21,12.17,2.98,18.03l3.36,11.12v0
	c6.35,11.5,13.59,22.49,21.63,32.87l6.12,7.89l0,0c11.13,11.49,23.4,21.81,36.6,30.8l0.41,0.28c2.54,1.73,5.19,3.27,7.94,4.63l0,0
	c11.04,5.44,22.3,10.42,33.75,14.93l7.61,3c11.16,4.4,22.62,8,34.3,10.76h0c2.87,0.68,5.85,0.78,8.75,0.29l0,0l0.12-0.06
	c2.25-1.22,4.21-2.91,5.76-4.96l0,0l0,0c0.1-3.53-0.3-7.05-1.18-10.46l-4.16-16.08c-3.19-12.31-7.33-24.36-12.38-36.02l-4.32-9.96
	c-5.75-13.25-12.84-25.87-21.16-37.66l0,0c-2.91-4.12-6.19-7.96-9.8-11.47l0,0c-10.74-10.44-22.46-19.81-35-27.98l0,0
	c-8.55-5.57-17.74-10.09-27.36-13.44l0,0c-5-1.74-10.21-2.77-15.5-3.05h0L382.39,352.23z"/>
<path class="st0" d="M405.62,472.19l15.31,86.35c0.05,0.28,0.41,0.37,0.58,0.14l41.06-55.05"/>
<path class="st0" d="M506.71,457.94l55.75-39.79c0.24-0.17,0.15-0.54-0.14-0.58l-84.78-13.68"/>
<line class="st0" x1="536.61" y1="536.3" x2="553.71" y2="553.39"/>
<path class="st0" d="M480.85,533.77"/>
<path class="st1" d="M506.47,539.36l18.69,20.21c1.5,1.62,2.67,3.53,3.43,5.6l0,0c0.39,1.06,0.61,2.17,0.67,3.29l0.05,1.02
	c0.09,1.71,0.02,3.42-0.21,5.11l-0.13,0.95c-0.17,1.26-0.59,2.47-1.23,3.56l-0.49,0.84c-0.76,1.29-1.67,2.48-2.72,3.54l0,0
	c-2.22,2.25-4.85,4.07-7.74,5.36l0,0c-0.75,0.34-1.57,0.5-2.4,0.48l-7.35-0.16c-1.47-0.03-2.91-0.35-4.26-0.94l0,0
	c-2.3-1-4.41-2.4-6.21-4.14l-2.75-2.65l-1.92-1.83l9.39-9.3l6.25,5.52c0.43,0.38,0.92,0.67,1.46,0.85l0,0
	c0.49,0.17,1.01,0.24,1.53,0.21h0c1.31-0.08,2.58-0.5,3.7-1.2l0.08-0.05c0.38-0.24,0.68-0.6,0.85-1.02l0.12-0.29
	c0.62-1.53,0.87-3.19,0.74-4.84l0,0c-0.04-0.53-0.27-1.03-0.64-1.41l-18.8-19.53L506.47,539.36z"/>
<path class="st1" d="M541.33,505.89l20.32,18.58c1.63,1.49,3.54,2.65,5.62,3.4l0,0c1.06,0.38,2.17,0.6,3.3,0.65l1.02,0.05
	c1.71,0.08,3.42,0,5.11-0.24l0.95-0.13c1.26-0.17,2.46-0.6,3.55-1.25l0.84-0.5c1.28-0.77,2.47-1.69,3.53-2.74l0,0
	c2.24-2.24,4.04-4.87,5.31-7.77l0,0c0.33-0.76,0.49-1.57,0.47-2.4l-0.2-7.35c-0.04-1.47-0.37-2.91-0.96-4.26l0,0
	c-1.01-2.3-2.43-4.39-4.18-6.19l-2.66-2.74l-1.84-1.91l-9.24,9.44l5.55,6.22c0.38,0.42,0.67,0.92,0.86,1.45l0,0
	c0.17,0.49,0.25,1.01,0.22,1.53l0,0c-0.08,1.31-0.48,2.59-1.18,3.7l-0.05,0.08c-0.24,0.39-0.6,0.69-1.02,0.86l-0.29,0.12
	c-1.53,0.63-3.19,0.89-4.84,0.77l0,0c-0.53-0.04-1.03-0.26-1.42-0.63l-19.64-18.69L541.33,505.89z"/>
<ellipse class="st0" cx="103.36" cy="106.34" rx="81.97" ry="82.44"/>
<g>
	<path class="st0" d="M110.97,413.17c-14.79,55.88-14.79,55.88-14.79,55.88"/>
	<path class="st0" d="M131.51,448.5c-55.88-14.79-55.88-14.79-55.88-14.79"/>
</g>
<g>
	<path class="st0" d="M488.17,139.32c22.15,54.13,22.15,54.13,22.15,54.13"/>
	<path class="st0" d="M526.15,155.25c-53.82,22.28-53.82,22.28-53.82,22.28"/>
</g>
<line class="st2" x1="246.34" y1="233.89" x2="321.53" y2="309.49"/>
<line class="st2" x1="247.83" y1="238.69" x2="247.83" y2="296.94"/>
<line class="st2" x1="251.06" y1="235.43" x2="308.97" y2="235.43"/>
<ellipse class="st1" cx="249.69" cy="237.37" rx="9.09" ry="8.93"/>
<ellipse class="st1" cx="247.87" cy="297.12" rx="6.96" ry="7.42"/>
<ellipse class="st1" cx="308.95" cy="235.49" rx="6.92" ry="6.96"/>
<ellipse class="st1" cx="321.32" cy="309.18" rx="6.85" ry="7.12"/>
</svg>
